<svg width="130" height="45" viewBox="0 0 130 45" fill="none" xmlns="http://www.w3.org/2000/svg">
<g clip-path="url(#clip0_1_439)">
<path d="M15.5569 44.9999C15.0359 44.9999 14.552 44.74 14.2915 44.2945L4.61503 29.2945C4.28008 28.7747 4.42895 28.1064 4.94998 27.7722C5.47103 27.438 6.17816 27.5865 6.47589 28.1064L15.4825 42.0667C20.8045 31.485 26.7593 17.9331 26.7593 13.1064C26.7593 6.68309 20.6557 3.63854 20.023 3.37863C19.3903 3.15586 11.8724 0.742499 6.9225 3.7128C4.5406 5.12369 3.08912 7.57418 2.56808 11.0271C1.82374 15.891 2.41921 19.5667 4.28008 21.6088C6.14094 23.6509 8.70893 23.5024 8.82058 23.5024C8.8578 23.5024 8.93224 23.5024 8.96945 23.5024C9.04389 23.5024 15.222 23.7994 18.0876 20.4579C19.502 18.7871 19.9114 16.4479 19.2787 13.4405C18.7949 11.1014 16.7851 9.39348 14.4776 9.31923C12.0213 9.24497 10.6814 9.91329 10.1232 11.4356C9.4905 13.292 9.45328 14.74 10.1232 15.7796C11.0536 17.2648 13.1005 17.5618 13.1005 17.5618C13.6961 17.636 14.1426 18.193 14.0682 18.7871C13.9938 19.3811 13.4355 19.8267 12.8401 19.7524C12.7284 19.7524 9.7138 19.3439 8.22511 16.9677C7.18302 15.3341 7.10858 13.2177 8.0018 10.693C8.8578 8.20537 11.0536 7.01725 14.5148 7.0915C17.8644 7.16576 20.6929 9.57913 21.4372 12.9579C22.2189 16.6707 21.6606 19.6781 19.7624 21.9058C16.3013 25.9158 9.67658 25.7673 8.89502 25.7301C8.33676 25.7673 5.09886 25.7673 2.64252 23.1311C0.223388 20.532 -0.520957 16.3737 0.335041 10.693C0.967735 6.53457 2.79138 3.56428 5.76876 1.7821C11.8352 -1.85652 20.4324 1.15091 20.8045 1.2623C20.8418 1.2623 20.879 1.29943 20.879 1.29943C21.2139 1.44795 28.9923 5.0123 28.9923 13.0692C28.9923 19.8637 19.7253 38.5767 16.8967 44.146C16.6362 44.6286 16.1524 44.9628 15.6313 44.9628C15.5941 44.9999 15.5941 44.9999 15.5569 44.9999Z" fill="#5F85FF"/>
<path d="M25.3822 38.8736V6.05176H30.3693V38.8736H25.3822Z" fill="black"/>
<path d="M32.8628 26.9928C32.8628 20.718 35.3193 14.7773 44.6979 14.7773C53.9651 14.7773 56.533 20.718 56.533 26.9928C56.533 33.3417 53.9651 39.2081 44.6607 39.2081C35.282 39.1709 32.8628 33.3047 32.8628 26.9928ZM51.4343 26.9928C51.4343 22.5745 50.3178 18.8245 44.6979 18.8245C39.1526 18.8245 37.9616 22.5373 37.9616 26.9928C37.9616 31.4853 39.1898 35.1611 44.6607 35.1611C50.2061 35.1611 51.4343 31.5596 51.4343 26.9928Z" fill="black"/>
<path d="M58.0961 26.9928C58.0961 20.6809 60.664 14.7773 69.8568 14.7773C77.1141 14.7773 80.5753 18.6388 80.5753 24.5794H75.5137C75.1788 20.9036 73.6902 18.8245 69.7451 18.8245C64.6091 18.8245 63.1949 22.3517 63.1949 26.9556C63.1949 31.4482 64.6091 34.9383 69.8568 34.9383C73.8018 34.9383 75.216 33.0075 75.551 29.5547H80.6125C80.6125 35.4209 77.3002 39.2081 70.0056 39.2081C60.5524 39.1709 58.0961 33.3047 58.0961 26.9928Z" fill="black"/>
<path d="M82.1013 31.8933C82.1013 27.5492 85.2275 25.5814 92.001 24.8759L99.4817 24.1333C99.3329 20.2348 98.1047 18.7126 93.3037 18.7126C88.8748 18.7126 87.6838 20.4576 87.6838 23.428L82.8456 23.465C82.8456 18.5269 84.8926 14.7397 93.2664 14.7397C102.98 14.7397 104.394 18.9354 104.394 25.3214V38.8363H101.715L100.673 35.272C99.5562 37.1284 96.2438 39.1705 91.3312 39.1705C86.1951 39.1705 82.1013 36.9056 82.1013 31.8933ZM99.4817 28.6631V27.9205L92.7454 28.6631C88.6143 29.1457 87.2001 29.9997 87.2001 31.8561C87.2001 34.0467 89.0609 35.3091 92.5593 35.3091C97.3604 35.272 99.4817 32.7844 99.4817 28.6631Z" fill="black"/>
<path d="M107.223 38.8736V6.05176H112.21V38.8736H107.223Z" fill="black"/>
<path d="M115.634 38.8736V6.05176H120.621V38.8736H115.634Z" fill="black"/>
<path d="M122.78 8.46544C122.78 6.05208 124.231 5.45801 126.464 5.45801C128.623 5.45801 130 6.05208 130 8.46544C130 10.8417 128.623 11.4357 126.464 11.4357C124.231 11.4357 122.78 10.8417 122.78 8.46544ZM123.971 38.8739V15.1114H128.921V38.8739H123.971Z" fill="black"/>
</g>
<defs>
<clipPath id="clip0_1_439">
<rect width="130" height="45" fill="white"/>
</clipPath>
</defs>
</svg>
